{
    "asset" : {
        "generator" : "Khronos glTF Blender I/O v1.6.16",
        "version" : "2.0"
    },
    "extensionsUsed" : [
        "KHR_materials_transmission",
        "KHR_materials_ior",
        "KHR_materials_volume"
    ],
    "scene" : 0,
    "scenes" : [
        {
            "name" : "Scene",
            "nodes" : [
                0,
                1,
                2,
                3,
                4,
                5
            ]
        }
    ],
    "nodes" : [
        {
            "mesh" : 0,
            "name" : "Bottle"
        },
        {
            "mesh" : 1,
            "name" : "Cork",
            "translation" : [
                -0.022640973329544067,
                0.016094744205474854,
                0
            ]
        },
        {
            "mesh" : 2,
            "name" : "Wine-03",
            "translation" : [
                -0.0008700266480445862,
                0.016094744205474854,
                0
            ]
        },
        {
            "mesh" : 3,
            "name" : "LabelFront",
            "translation" : [
                -0.0008835308253765106,
                0.016094744205474854,
                0
            ]
        },
        {
            "mesh" : 4,
            "name" : "LabelBack",
            "translation" : [
                3.708153963088989e-05,
                0.016094744205474854,
                0
            ]
        },
        {
            "mesh" : 5,
            "name" : "Cap",
            "translation" : [
                -0.0006571125704795122,
                0.0013657817617058754,
                0
            ]
        }
    ],
    "materials" : [
        {
            "extensions" : {
                "KHR_materials_transmission" : {
                    "transmissionFactor" : 1
                },
                "KHR_materials_ior" : {
                    "ior" : 1.4500000476837158
                },
                "KHR_materials_volume" : {
                    "thicknessFactor" : 0.8999999761581421,
                    "attenuationColor" : [
                        1,
                        1,
                        1
                    ],
                    "attenuationDistance" : 0.1
                }
            },
            "name" : "Glass Transparent",
            "pbrMetallicRoughness" : {
                "metallicFactor" : 0,
                "roughnessFactor" : 0
            }
        },
        {
            "doubleSided" : true,
            "name" : "Cork",
            "pbrMetallicRoughness" : {
                "baseColorFactor" : [
                    0.372901976108551,
                    0.15968558192253113,
                    0.051289889961481094,
                    1
                ],
                "metallicFactor" : 0,
                "roughnessFactor" : 0.5
            }
        },
        {
            "doubleSided" : true,
            "extensions" : {
                "KHR_materials_transmission" : {
                    "transmissionFactor" : 1
                },
                "KHR_materials_ior" : {
                    "ior" : 1.4500000476837158
                },
                "KHR_materials_volume" : {
                    "thicknessFactor" : 0.5,
                    "attenuationColor" : [
                        1,
                        0.6078158617019653,
                        0.5722728371620178
                    ],
                    "attenuationDistance" : 0.1
                }
            },
            "name" : "Wine Rose",
            "pbrMetallicRoughness" : {
                "metallicFactor" : 0,
                "roughnessFactor" : 0
            }
        },
        {
            "doubleSided" : true,
            "name" : "Etiketa Front",
            "pbrMetallicRoughness" : {
                "baseColorTexture" : {
                    "index" : 0
                },
                "metallicFactor" : 0,
                "roughnessFactor" : 0.5
            }
        },
        {
            "doubleSided" : true,
            "name" : "Label Back",
            "pbrMetallicRoughness" : {
                "baseColorTexture" : {
                    "index" : 1
                },
                "metallicFactor" : 0,
                "roughnessFactor" : 0.5
            }
        },
        {
            "doubleSided" : true,
            "name" : "Cap",
            "pbrMetallicRoughness" : {
                "baseColorFactor" : [
                    0,
                    0,
                    0,
                    1
                ],
                "metallicFactor" : 0,
                "roughnessFactor" : 0.5
            }
        }
    ],
    "meshes" : [
        {
            "name" : "Circle.001",
            "primitives" : [
                {
                    "attributes" : {
                        "POSITION" : 0,
                        "NORMAL" : 1,
                        "TEXCOORD_0" : 2
                    },
                    "indices" : 3,
                    "material" : 0
                }
            ]
        },
        {
            "name" : "Cylinder",
            "primitives" : [
                {
                    "attributes" : {
                        "POSITION" : 4,
                        "NORMAL" : 5,
                        "TEXCOORD_0" : 6
                    },
                    "indices" : 7,
                    "material" : 1
                }
            ]
        },
        {
            "name" : "Circle.005",
            "primitives" : [
                {
                    "attributes" : {
                        "POSITION" : 8,
                        "NORMAL" : 9,
                        "TEXCOORD_0" : 10
                    },
                    "indices" : 11,
                    "material" : 2
                }
            ]
        },
        {
            "name" : "Circle.006",
            "primitives" : [
                {
                    "attributes" : {
                        "POSITION" : 12,
                        "NORMAL" : 13,
                        "TEXCOORD_0" : 14
                    },
                    "indices" : 15,
                    "material" : 3
                }
            ]
        },
        {
            "name" : "Circle.007",
            "primitives" : [
                {
                    "attributes" : {
                        "POSITION" : 16,
                        "NORMAL" : 17,
                        "TEXCOORD_0" : 18
                    },
                    "indices" : 19,
                    "material" : 4
                }
            ]
        },
        {
            "name" : "Circle.008",
            "primitives" : [
                {
                    "attributes" : {
                        "POSITION" : 20,
                        "NORMAL" : 21,
                        "TEXCOORD_0" : 22
                    },
                    "indices" : 23,
                    "material" : 5
                }
            ]
        }
    ],
    "textures" : [
        {
            "sampler" : 0,
            "source" : 0
        },
        {
            "sampler" : 0,
            "source" : 1
        }
    ],
    "images" : [
        {
            "mimeType" : "image/jpeg",
            "name" : "0005",
            "uri" : "0005.jpg"
        },
        {
            "mimeType" : "image/jpeg",
            "name" : "0001",
            "uri" : "0001.jpg"
        }
    ],
    "accessors" : [
        {
            "bufferView" : 0,
            "componentType" : 5126,
            "count" : 2850,
            "max" : [
                0.484974205493927,
                4.40388822555542,
                0.4849741756916046
            ],
            "min" : [
                -0.484974205493927,
                -0.004759848117828369,
                -0.4849741756916046
            ],
            "type" : "VEC3"
        },
        {
            "bufferView" : 1,
            "componentType" : 5126,
            "count" : 2850,
            "type" : "VEC3"
        },
        {
            "bufferView" : 2,
            "componentType" : 5126,
            "count" : 2850,
            "type" : "VEC2"
        },
        {
            "bufferView" : 3,
            "componentType" : 5123,
            "count" : 15168,
            "type" : "SCALAR"
        },
        {
            "bufferView" : 4,
            "componentType" : 5126,
            "count" : 704,
            "max" : [
                0.15137118101119995,
                4.376647472381592,
                0.15137119591236115
            ],
            "min" : [
                -0.1513713002204895,
                3.921281337738037,
                -0.1513712853193283
            ],
            "type" : "VEC3"
        },
        {
            "bufferView" : 5,
            "componentType" : 5126,
            "count" : 704,
            "type" : "VEC3"
        },
        {
            "bufferView" : 6,
            "componentType" : 5126,
            "count" : 704,
            "type" : "VEC2"
        },
        {
            "bufferView" : 7,
            "componentType" : 5123,
            "count" : 1140,
            "type" : "SCALAR"
        },
        {
            "bufferView" : 8,
            "componentType" : 5126,
            "count" : 1009,
            "max" : [
                0.44509702920913696,
                4.117417335510254,
                0.4450969994068146
            ],
            "min" : [
                -0.44509702920913696,
                0.07626402378082275,
                -0.4450969994068146
            ],
            "type" : "VEC3"
        },
        {
            "bufferView" : 9,
            "componentType" : 5126,
            "count" : 1009,
            "type" : "VEC3"
        },
        {
            "bufferView" : 10,
            "componentType" : 5126,
            "count" : 1009,
            "type" : "VEC2"
        },
        {
            "bufferView" : 11,
            "componentType" : 5123,
            "count" : 5760,
            "type" : "SCALAR"
        },
        {
            "bufferView" : 12,
            "componentType" : 5126,
            "count" : 112,
            "max" : [
                0.44805771112442017,
                2.4250125885009766,
                0.49099358916282654
            ],
            "min" : [
                -0.44805771112442017,
                0.4063793420791626,
                0.18559157848358154
            ],
            "type" : "VEC3"
        },
        {
            "bufferView" : 13,
            "componentType" : 5126,
            "count" : 112,
            "type" : "VEC3"
        },
        {
            "bufferView" : 14,
            "componentType" : 5126,
            "count" : 112,
            "type" : "VEC2"
        },
        {
            "bufferView" : 15,
            "componentType" : 5123,
            "count" : 300,
            "type" : "SCALAR"
        },
        {
            "bufferView" : 16,
            "componentType" : 5126,
            "count" : 96,
            "max" : [
                0.40324121713638306,
                2.1829965114593506,
                -0.26943719387054443
            ],
            "min" : [
                -0.4032413363456726,
                0.6401447653770447,
                -0.48801302909851074
            ],
            "type" : "VEC3"
        },
        {
            "bufferView" : 17,
            "componentType" : 5126,
            "count" : 96,
            "type" : "VEC3"
        },
        {
            "bufferView" : 18,
            "componentType" : 5126,
            "count" : 96,
            "type" : "VEC2"
        },
        {
            "bufferView" : 19,
            "componentType" : 5123,
            "count" : 252,
            "type" : "SCALAR"
        },
        {
            "bufferView" : 20,
            "componentType" : 5126,
            "count" : 1632,
            "max" : [
                0.21871010959148407,
                4.424708843231201,
                0.21871012449264526
            ],
            "min" : [
                -0.21871016919612885,
                3.5787158012390137,
                -0.21871010959148407
            ],
            "type" : "VEC3"
        },
        {
            "bufferView" : 21,
            "componentType" : 5126,
            "count" : 1632,
            "type" : "VEC3"
        },
        {
            "bufferView" : 22,
            "componentType" : 5126,
            "count" : 1632,
            "type" : "VEC2"
        },
        {
            "bufferView" : 23,
            "componentType" : 5123,
            "count" : 6132,
            "type" : "SCALAR"
        }
    ],
    "bufferViews" : [
        {
            "buffer" : 0,
            "byteLength" : 34200,
            "byteOffset" : 0
        },
        {
            "buffer" : 0,
            "byteLength" : 34200,
            "byteOffset" : 34200
        },
        {
            "buffer" : 0,
            "byteLength" : 22800,
            "byteOffset" : 68400
        },
        {
            "buffer" : 0,
            "byteLength" : 30336,
            "byteOffset" : 91200
        },
        {
            "buffer" : 0,
            "byteLength" : 8448,
            "byteOffset" : 121536
        },
        {
            "buffer" : 0,
            "byteLength" : 8448,
            "byteOffset" : 129984
        },
        {
            "buffer" : 0,
            "byteLength" : 5632,
            "byteOffset" : 138432
        },
        {
            "buffer" : 0,
            "byteLength" : 2280,
            "byteOffset" : 144064
        },
        {
            "buffer" : 0,
            "byteLength" : 12108,
            "byteOffset" : 146344
        },
        {
            "buffer" : 0,
            "byteLength" : 12108,
            "byteOffset" : 158452
        },
        {
            "buffer" : 0,
            "byteLength" : 8072,
            "byteOffset" : 170560
        },
        {
            "buffer" : 0,
            "byteLength" : 11520,
            "byteOffset" : 178632
        },
        {
            "buffer" : 0,
            "byteLength" : 1344,
            "byteOffset" : 190152
        },
        {
            "buffer" : 0,
            "byteLength" : 1344,
            "byteOffset" : 191496
        },
        {
            "buffer" : 0,
            "byteLength" : 896,
            "byteOffset" : 192840
        },
        {
            "buffer" : 0,
            "byteLength" : 600,
            "byteOffset" : 193736
        },
        {
            "buffer" : 0,
            "byteLength" : 1152,
            "byteOffset" : 194336
        },
        {
            "buffer" : 0,
            "byteLength" : 1152,
            "byteOffset" : 195488
        },
        {
            "buffer" : 0,
            "byteLength" : 768,
            "byteOffset" : 196640
        },
        {
            "buffer" : 0,
            "byteLength" : 504,
            "byteOffset" : 197408
        },
        {
            "buffer" : 0,
            "byteLength" : 19584,
            "byteOffset" : 197912
        },
        {
            "buffer" : 0,
            "byteLength" : 19584,
            "byteOffset" : 217496
        },
        {
            "buffer" : 0,
            "byteLength" : 13056,
            "byteOffset" : 237080
        },
        {
            "buffer" : 0,
            "byteLength" : 12264,
            "byteOffset" : 250136
        }
    ],
    "samplers" : [
        {
            "magFilter" : 9729,
            "minFilter" : 9987
        }
    ],
    "buffers" : [
        {
            "byteLength" : 262400,
            "uri" : "flasha-model.bin"
        }
    ]
}
